<svg width="236" height="103" viewBox="0 0 236 103" fill="none" xmlns="http://www.w3.org/2000/svg">
<path d="M223.626 55.9698C246.633 50.2394 228.966 24.8621 218.284 33.8669C221.845 30.8653 223.728 17.0264 206.781 9.30824C192.401 2.75926 182.678 10.8091 177.2 21.1783C155.883 -25.5302 91.8834 16.4698 126.383 52.9698H81.3834C81.8834 48.4698 79.8834 39.9698 74.3834 33.9698L87.8834 23.4698C88.3834 22.4698 87.6834 21.5698 86.8834 21.9698C86.0834 22.3698 76.3834 28.6364 72.3834 31.9698C69.8834 28.9698 63.8834 24.4698 53.8834 23.4698L53.8834 6.96973C53.5501 6.46973 52.3834 4.96975 51.3834 6.96973V23.4698C46.7167 23.3031 39.3834 24.4698 30.3834 32.4698L16.3834 20.9698C15.8834 20.6364 14.3834 20.9698 14.8834 22.9698L28.8834 34.4698C25.8834 38.4698 22.8834 42.4698 22.3834 52.9698H1.3834C0.71673 53.3031 -0.216603 54.6698 1.3834 55.4698H22.3834C22.8834 60.4698 24.8834 66.4698 28.3834 70.9698L14.8834 78.9697C14.7167 79.8031 14.7834 81.4697 16.3834 81.4697L30.3834 72.9697C33.8834 77.4698 42.3834 82.4697 51.3834 82.4697V100.97C51.8834 101.47 53.0834 102.17 53.8834 100.97V82.4697C58.8834 82.4697 68.8834 78.9697 72.8834 73.4697L87.8834 81.4697C88.5501 81.4697 89.6834 80.9697 88.8834 78.9697L74.8834 71.4697C77.8834 68.4697 80.8834 59.4698 81.3834 55.4698H99.8834" stroke="#F09D01"/>
</svg>
